<svg viewBox="0 0 100 100" xmlns="http://www.w3.org/2000/svg"><path d="M75.5,71.5Q64,93,46,79.5Q28,66,25,47.5Q22,29,43.5,16Q65,3,76,26.5Q87,50,75.5,71.5Z" stroke="none" stroke-width="0" fill="#000"/><path d="M72,67Q61,84,38.5,79Q16,74,22,54Q28,34,44,26.5Q60,19,71.5,34.5Q83,50,72,67Z" stroke="none" stroke-width="0" fill="#e8dfe5"/><path d="M71.5,63Q59,76,42,72Q25,68,19.5,46Q14,24,37.5,21Q61,18,72.5,34Q84,50,71.5,63Z" stroke="none" stroke-width="0" fill="#e5dce5"/><path d="M74.5,66.5Q61,83,42,76.5Q23,70,23.5,50.5Q24,31,41.5,27Q59,23,73.5,36.5Q88,50,74.5,66.5Z" stroke="none" stroke-width="0" fill="#e2d9e5"/><path d="M73.5,63Q59,76,44,70.5Q29,65,25.5,47.5Q22,30,43,18.5Q64,7,76,28.5Q88,50,73.5,63Z" stroke="none" stroke-width="0" fill="#dfd6e5"/><path d="M70,71Q64,92,40,83.5Q16,75,14.5,49Q13,23,38,16.5Q63,10,69.5,30Q76,50,70,71Z" stroke="none" stroke-width="0" fill="#dcd3e5"/><path d="M79.5,64.5Q59,79,43.5,72.5Q28,66,20,44Q12,22,35,23Q58,24,79,37Q100,50,79.5,64.5Z" stroke="none" stroke-width="0" fill="#d9d0e5"/><path d="M80,68Q62,86,39.5,80Q17,74,13.5,47.5Q10,21,35.5,18.5Q61,16,79.5,33Q98,50,80,68Z" stroke="none" stroke-width="0" fill="#d6cde5"/><path d="M78,73Q65,96,42.5,84Q20,72,15.5,47Q11,22,36.5,17.5Q62,13,76.5,31.5Q91,50,78,73Z" stroke="none" stroke-width="0" fill="#d3cae5"/><path d="M82,71.5Q64,93,43,81.5Q22,70,25.5,52.5Q29,35,45,26Q61,17,80.5,33.5Q100,50,82,71.5Z" stroke="none" stroke-width="0" fill="#d0c7e5"/><path d="M76.5,67.5Q62,85,42.5,77.5Q23,70,22.5,49.5Q22,29,40.5,25.5Q59,22,75,36Q91,50,76.5,67.5Z" stroke="none" stroke-width="0" fill="#cdc4e5"/><path d="M73.5,73Q65,96,46.5,81Q28,66,27.5,49.5Q27,33,46,18Q65,3,73.5,26.5Q82,50,73.5,73Z" stroke="none" stroke-width="0" fill="#cac1e5"/><path d="M71,65Q60,80,44,73Q28,66,27.5,49.5Q27,33,46,19Q65,5,73.5,27.5Q82,50,71,65Z" stroke="none" stroke-width="0" fill="#c7bee5"/><path d="M78,71Q64,92,39.5,83.5Q15,75,16.5,51Q18,27,38,26Q58,25,75,37.5Q92,50,78,71Z" stroke="none" stroke-width="0" fill="#c4bbe5"/><path d="M70,70Q63,90,46.5,77.5Q30,65,28,49Q26,33,43,26.5Q60,20,68.5,35Q77,50,70,70Z" stroke="none" stroke-width="0" fill="#c1b8e5"/><path d="M68.5,63Q58,76,43.5,70.5Q29,65,24,46Q19,27,42,15.5Q65,4,72,27Q79,50,68.5,63Z" stroke="none" stroke-width="0" fill="#beb5e5"/><path d="M68,65.5Q60,81,39,77Q18,73,15.5,48Q13,23,37.5,18.5Q62,14,69,32Q76,50,68,65.5Z" stroke="none" stroke-width="0" fill="#bbb2e5"/><path d="M79,73Q65,96,37.5,87.5Q10,79,13,52Q16,25,38.5,21Q61,17,77,33.5Q93,50,79,73Z" stroke="none" stroke-width="0" fill="#b8afe5"/><path d="M71,64.5Q59,79,34.5,79Q10,79,16.5,54.5Q23,30,44,17.5Q65,5,74,27.5Q83,50,71,64.5Z" stroke="none" stroke-width="0" fill="#b5ace5"/><path d="M69.5,66Q60,82,44.5,73.5Q29,65,25,47Q21,29,42,20Q63,11,71,30.5Q79,50,69.5,66Z" stroke="none" stroke-width="0" fill="#b2a9e5"/><path d="M72,72.5Q65,95,38,86.5Q11,78,13.5,52Q16,26,40,16.5Q64,7,71.5,28.5Q79,50,72,72.5Z" stroke="none" stroke-width="0" fill="#afa6e5"/><path d="M71.5,73Q65,96,41.5,85Q18,74,23,54Q28,34,46,20Q64,6,71,28Q78,50,71.5,73Z" stroke="none" stroke-width="0" fill="#aca3e5"/><path d="M77,73.5Q65,97,37.5,88Q10,79,12.5,51.5Q15,24,36.5,24.5Q58,25,73.5,37.5Q89,50,77,73.5Z" stroke="none" stroke-width="0" fill="#a9a0e5"/><path d="M73,65Q60,80,40,76Q20,72,17,48Q14,24,38,18Q62,12,74,31Q86,50,73,65Z" stroke="none" stroke-width="0" fill="#a69de5"/><path d="M71.5,71Q64,92,45.5,79.5Q27,67,26,49.5Q25,32,43,24Q61,16,70,33Q79,50,71.5,71Z" stroke="none" stroke-width="0" fill="#a39ae5"/><path d="M67.5,64Q59,78,36,77.5Q13,77,17.5,53.5Q22,30,40.5,26.5Q59,23,67.5,36.5Q76,50,67.5,64Z" stroke="none" stroke-width="0" fill="#a097e5"/><path d="M78,64.5Q59,79,44,72Q29,65,27.5,48.5Q26,32,42,28.5Q58,25,77.5,37.5Q97,50,78,64.5Z" stroke="none" stroke-width="0" fill="#9d94e5"/><path d="M70,73Q65,96,40.5,85.5Q16,75,18,51.5Q20,28,39.5,25.5Q59,23,67,36.5Q75,50,70,73Z" stroke="none" stroke-width="0" fill="#9a91e5"/><path d="M68.5,69Q62,88,37,82.5Q12,77,19.5,55Q27,33,43,28Q59,23,67,36.5Q75,50,68.5,69Z" stroke="none" stroke-width="0" fill="#978ee5"/><path d="M72.5,69.5Q63,89,46,77Q29,65,20,43.5Q11,22,37,15.5Q63,9,72.5,29.5Q82,50,72.5,69.5Z" stroke="none" stroke-width="0" fill="#948be5"/><path d="M73,66Q60,82,41,76Q22,70,23.5,51Q25,32,44,21Q63,10,74.5,30Q86,50,73,66Z" stroke="none" stroke-width="0" fill="#9188e5"/><path d="M75.5,65.5Q60,81,35.5,79.5Q11,78,18.5,55Q26,32,42,28.5Q58,25,74.5,37.5Q91,50,75.5,65.5Z" stroke="none" stroke-width="0" fill="#000"/><path d="M71,69.5Q63,89,43,79Q23,69,18.5,46.5Q14,24,37,22.5Q60,21,69.5,35.5Q79,50,71,69.5Z" stroke="none" stroke-width="0" fill="#8b82e5"/><path d="M72.5,67Q61,84,39.5,78.5Q18,73,23,53.5Q28,34,43,29.5Q58,25,71,37.5Q84,50,72.5,67Z" stroke="none" stroke-width="0" fill="#887fe5"/><path d="M71.5,70.5Q63,91,41.5,81.5Q20,72,17,48Q14,24,37.5,20.5Q61,17,70.5,33.5Q80,50,71.5,70.5Z" stroke="none" stroke-width="0" fill="#857ce5"/><path d="M76.5,69Q62,88,37.5,82.5Q13,77,19,54.5Q25,32,43.5,23Q62,14,76.5,32Q91,50,76.5,69Z" stroke="none" stroke-width="0" fill="#8279e5"/><path d="M74,67Q61,84,45,74.5Q29,65,22.5,45Q16,25,37.5,23.5Q59,22,73,36Q87,50,74,67Z" stroke="none" stroke-width="0" fill="#7f76e5"/><path d="M76.5,69Q62,88,37,83Q12,78,17.5,54.5Q23,31,40.5,28.5Q58,26,74.5,38Q91,50,76.5,69Z" stroke="none" stroke-width="0" fill="#7c73e5"/><path d="M79,63Q59,76,37.5,75.5Q16,75,19.5,52.5Q23,30,44,16.5Q65,3,82,26.5Q99,50,79,63Z" stroke="none" stroke-width="0" fill="#7970e5"/><path d="M70.5,71Q64,92,40.5,83Q17,74,21.5,53Q26,32,43.5,24Q61,16,69,33Q77,50,70.5,71Z" stroke="none" stroke-width="0" fill="#766de5"/><path d="M77,70.5Q63,91,45.5,78.5Q28,66,27,49Q26,32,45,19Q64,6,77.5,28Q91,50,77,70.5Z" stroke="none" stroke-width="0" fill="#736ae5"/><path d="M72.5,67Q61,84,39.5,78.5Q18,73,23,53.5Q28,34,43,29.5Q58,25,71,37.5Q84,50,72.5,67Z" stroke="none" stroke-width="0" fill="#7067e5"/><path d="M72.5,67Q61,84,39.5,78.5Q18,73,23,53.5Q28,34,43,29.5Q58,25,71,37.5Q84,50,72.5,67Z" stroke="none" stroke-width="0" fill="#6d64e5"/><path d="M72,68.5Q62,87,43,78Q24,69,22,48.5Q20,28,40,24Q60,20,71,35Q82,50,72,68.5Z" stroke="none" stroke-width="0" fill="#6a61e5"/><path d="M77,63Q58,76,43,71Q28,66,23,46.5Q18,27,41,17Q64,7,80,28.5Q96,50,77,63Z" stroke="none" stroke-width="0" fill="#675ee5"/><path d="M78.5,68.5Q62,87,44,77Q26,67,20.5,46Q15,25,38,21Q61,17,78,33.5Q95,50,78.5,68.5Z" stroke="none" stroke-width="0" fill="#645be5"/><path d="M72,62.5Q58,75,38,74Q18,73,20.5,51.5Q23,30,42,23.5Q61,17,73.5,33.5Q86,50,72,62.5Z" stroke="none" stroke-width="0" fill="#6158e5"/><path d="M72.5,69.5Q63,89,38.5,82.5Q14,76,18,53Q22,30,41,24Q60,18,71,34Q82,50,72.5,69.5Z" stroke="none" stroke-width="0" fill="#5e55e5"/><path d="M77.5,71Q64,92,44,80.5Q24,69,19.5,47Q15,25,39,18Q63,11,77,30.5Q91,50,77.5,71Z" stroke="none" stroke-width="0" fill="#5b52e5"/><path d="M79,64.5Q59,79,35.5,78.5Q12,78,17,54Q22,30,41,24.5Q60,19,79.5,34.5Q99,50,79,64.5Z" stroke="none" stroke-width="0" fill="#584fe5"/><path d="M77.5,65Q60,80,37.5,77.5Q15,75,16,50.5Q17,26,38,24.5Q59,23,77,36.5Q95,50,77.5,65Z" stroke="none" stroke-width="0" fill="#554ce5"/><path d="M74.5,66Q60,82,38.5,78Q17,74,15,48.5Q13,23,35.5,23.5Q58,24,73.5,37Q89,50,74.5,66Z" stroke="none" stroke-width="0" fill="#5249e5"/></svg>